<?xml version="1.0" encoding="UTF-8"?><svg id="Layer_2" xmlns="http://www.w3.org/2000/svg" viewBox="0 0 135.92 139.95"><defs><style>.cls-1{fill:#000000;}</style></defs><g id="Layer_1-2"><g><path class="cls-1" d="m9.94,88.18c1.08-2.37,2.06-4.54,3.06-6.7,10.05-21.8,20.06-43.61,30.17-65.38C47.76,6.22,55.63.88,66.48.07c11.02-.82,21.43,5.33,26.15,15.52,11.06,23.88,22.05,47.79,33.06,71.69.11.25.21.5.36.84-3.46,0-6.8.11-10.13-.05-1.71-.08-2.8-1.32-3.52-2.89-3.64-7.94-7.29-15.87-10.97-23.79-2.93-6.31-7.92-9.69-14.85-9.6-6.82.09-11.71,3.63-14.61,9.73-3.7,7.78-7.25,15.62-10.82,23.46-.99,2.18-2.55,3.24-4.96,3.2-2.87-.06-5.75-.01-8.78-.01.21-.51.35-.9.52-1.28,4.71-10.21,9.4-20.43,14.13-30.63,5.04-10.89,16.58-17.14,28.36-15.41.47.07.94.1,1.54.16-.14-.36-.23-.64-.35-.91-2.98-6.48-5.93-12.98-8.95-19.45-4.7-10.04-17.48-12.7-25.51-5.21-1.59,1.48-2.89,3.45-3.81,5.43-9.92,21.33-19.75,42.7-29.58,64.08-1.02,2.22-2.59,3.3-5.05,3.24-2.83-.07-5.67-.02-8.75-.02Z"/><path class="cls-1" d="m47.51,96.03c.08-.07.11-.12.14-.12q2.72-.31,2.72,2.39c0,2-.03,3.99.03,5.99,0,.33.35.93.55.94,2.74.06,5.48.04,8.37.04,0-2.44,0-4.74,0-7.04,0-.36.03-.72,0-1.08-.11-.98.26-1.42,1.28-1.3.51.06,1.03,0,1.63,0v21.47h-2.82c-.03-.65-.08-1.24-.08-1.82,0-2.24-.02-4.47,0-6.71,0-.72-.24-.98-.97-.97-2.35.04-4.71.04-7.06,0-.77-.01-.94.3-.93,1,.03,2.79.01,5.58.01,8.46h-2.87v-21.26Z"/><path class="cls-1" d="m17.49,117.33c-3.14.18-3.19.2-4-2.67-.25-.89-.62-1.2-1.54-1.17-2.23.07-4.47.05-6.7,0-.69-.01-1.04.22-1.16.88-.04.19-.12.38-.18.57q-.85,2.72-3.91,2.34c.95-2.93,1.89-5.84,2.83-8.75,1.23-3.83,2.47-7.65,3.66-11.49.26-.84.62-1.24,1.57-1.21,3.04.1,2.34-.37,3.23,2.36,1.98,6.01,3.92,12.03,5.87,18.05.11.34.2.68.32,1.09Zm-8.77-17.99c-1.26,4.09-2.41,7.83-3.6,11.7h7.23c-1.2-3.86-2.36-7.6-3.63-11.7Z"/><path class="cls-1" d="m21.77,116.28c0,1.79,0,3.57,0,5.35q0,1.63-1.65,1.63c-.43,0-.86,0-1.34,0v-21.3c2.12-.51,2.83-.3,3.13.93,3.5-2.93,9.12-1.18,9.7,4.26.21,1.95.21,4.03-.23,5.92-1.03,4.42-5.6,5.93-9.27,3.27-.05-.04-.14-.02-.34-.05Zm7.24-6.61c-.28-1.32-.41-2.48-.79-3.55-.49-1.37-1.68-2.07-3.09-2.02-1.4.05-2.34.82-2.79,2.08-.79,2.25-.8,4.55.03,6.8.43,1.15,1.25,1.94,2.57,2.03,1.38.09,2.5-.46,3.03-1.7.51-1.18.73-2.48,1.05-3.64Z"/><path class="cls-1" d="m36.07,116.17c0,1.96,0,3.71,0,5.46q0,1.64-1.66,1.64c-.39,0-.79,0-1.28,0v-21.4h2.74c.1.28.21.61.32.92.09,0,.18.03.23,0,3.67-2.67,8.3-1.05,9.27,3.45.42,1.94.44,4.06.19,6.04-.69,5.27-6.24,6.79-9.8,3.9Zm7.31-6.53c-.37-1.38-.59-2.64-1.05-3.81-.49-1.25-1.61-1.72-2.9-1.72-1.29,0-2.25.68-2.7,1.84-.92,2.39-.94,4.84.02,7.24.43,1.07,1.26,1.73,2.46,1.82,1.26.09,2.38-.33,2.91-1.48.57-1.24.87-2.61,1.27-3.89Z"/><path class="cls-1" d="m76.61,117.25c-2.46.4-2.8.29-3.15-1.14-1.53,1.19-3.27,1.63-5.16,1.51-2.52-.16-4.18-1.57-4.5-3.84-.35-2.49.82-4.67,3.15-5.39,1.27-.39,2.66-.41,4-.53.83-.07,1.67-.01,2.47-.01.42-1.67.04-2.78-1.09-3.36-1.33-.69-3.75-.52-4.32.57-.75,1.44-1.78,1.12-2.9.93-.26-.05-.51-.15-.82-.24.14-1.61,1.03-2.65,2.31-3.31,2.41-1.23,4.91-1.29,7.37-.13,1.51.72,2.54,1.97,2.59,3.63.12,3.78.04,7.56.04,11.33Zm-3.16-7.2c-1.65.18-3.35.22-4.98.58-1.24.27-1.78,1.31-1.67,2.42.11,1.1.88,1.79,2.19,1.97,3.24.46,5.07-1.45,4.46-4.98Z"/><path class="cls-1" d="m114.1,110.67h-10.26c-.29,1.83.42,3.27,1.87,3.97,2,.96,3.93.38,5.76-1.73.08,0,.17-.05.23-.02,2.08,1.03,2.14,1.5.38,3.08-3.74,3.36-9.71,1.64-10.99-3.19-.62-2.35-.68-4.75.05-7.09.83-2.69,3.06-4.16,6.16-4.16,3.16,0,5.18,1.3,5.98,4.12.44,1.54.53,3.19.82,5.02Zm-3.3-2.41c.06-1.68-.36-3.01-1.82-3.75-1.3-.66-2.66-.63-3.85.25-1.14.85-1.47,2.08-1.32,3.5h6.99Z"/><path class="cls-1" d="m120.74,101.4c1.16.29,2.35.41,3.36.89.85.41,1.63,1.15,2.19,1.92.37.51.3,1.34.42,2.02-.73.08-1.47.2-2.2.2-.19,0-.48-.37-.54-.61-.33-1.29-1.35-1.62-2.44-1.78-1.25-.18-2.52-.12-3.42.93-.65.77-.41,1.78.62,2.28.92.45,1.95.69,2.92,1.04,1.05.38,2.14.67,3.12,1.19,2.98,1.6,3.07,5.56.09,7.15-2.76,1.48-5.62,1.34-8.34-.26-1.04-.61-1.66-1.58-1.73-2.85-.04-.6.19-.91.81-.89.93.03,1.9-.31,2.3,1.16.3,1.12,1.56,1.38,2.68,1.45,1.19.07,2.34-.09,3.11-1.14.56-.76.39-1.69-.48-2.15-.84-.44-1.77-.7-2.67-1.03-1.12-.41-2.28-.74-3.35-1.25-1.54-.73-2.37-2.03-2.29-3.75.08-1.74.96-3.05,2.61-3.68,1.03-.39,2.14-.57,3.25-.85Z"/><path class="cls-1" d="m101.24,101.77c-1.39,4.18-2.71,8.17-4.04,12.17-.15.45-.29.91-.45,1.36-.73,2.19-.74,2.23-3.05,2.06-.39-.03-.98-.42-1.1-.77-1.66-4.86-3.25-9.73-4.93-14.8,1,0,1.9-.09,2.77.05.32.05.68.6.8.99.94,2.96,1.82,5.94,2.72,8.91.11.36.26.72.51,1.4.85-2.76,1.59-5.21,2.34-7.65.23-.76.55-1.51.67-2.29.19-1.19.82-1.59,1.97-1.43.51.07,1.03.01,1.78.01Z"/><path class="cls-1" d="m129.43,104.25c-.82-.04-1.45-.06-2.18-.1v-2.32c.68-.04,1.34-.08,2.18-.14,0-1.06.03-2.08,0-3.1-.03-.68.25-.89.91-.92,1.98-.09,1.98-.11,1.98,1.88,0,.67,0,1.35,0,2.15h3.61v2.48h-3.61c0,1.13,0,2.19,0,3.25,0,1.68-.03,3.35,0,5.03.03,1.45.61,2.07,1.97,2.24q1.65.21,1.62,1.89c0,.2-.03.39-.07.84-1.39-.12-2.79-.12-4.12-.39-1.51-.31-2.25-1.52-2.27-3.38-.03-2.67,0-5.35,0-8.02,0-.43,0-.86,0-1.4Z"/><path class="cls-1" d="m78.33,117.39v-15.55h2.84c.05.55.1,1.05.12,1.33,1.09-.52,2.15-1.27,3.32-1.51,2.05-.43,2.59.24,2.15,2.24-.07.3-.17.6-.24.85-.16.06-.24.11-.3.1-3.41-.57-4.97.75-4.97,4.21,0,2.35-.04,4.71.02,7.06.03.97-.23,1.41-1.26,1.28-.51-.06-1.03-.01-1.69-.01Z"/><path class="cls-1" d="m53.44,135.63v-5.92h1.96v10.08c-1.15.34-1.97.17-2.6-1.05-.88-1.72-1.96-3.34-3.14-5.3v6.38h-1.97v-10.09c1.13-.3,1.97-.2,2.6,1.04.86,1.7,1.92,3.29,2.9,4.93.08-.03.16-.05.25-.08Z"/><path class="cls-1" d="m118.19,129.73c1.31-.39,2.06.01,2.65,1.18.83,1.66,1.88,3.21,3.04,4.75v-5.97h1.95v10.1c-1.19.39-1.97.09-2.58-1.09-.88-1.7-1.94-3.3-3.1-5.23v6.37h-1.97v-10.11Z"/><path class="cls-1" d="m61.1,139.91v-10.17c1.64,0,3.24-.16,4.79.04,1.73.23,2.53,1.34,2.57,3.08.03,1.2.02,2.4,0,3.59-.02,2.08-1.12,3.31-3.17,3.44-1.35.08-2.7.02-4.19.02Zm2.01-1.86c.43.03.74.07,1.05.08,1.82.03,2.24-.38,2.24-2.24,0-1,.01-2-.02-2.99-.02-.82-.44-1.39-1.27-1.49-.65-.08-1.32-.02-2.01-.02v6.65Z"/><path class="cls-1" d="m81.75,139.86h-2.13c-.2-.53-.39-1.04-.6-1.62-.64,0-1.27.04-1.9,0-1.18-.09-2.21-.02-2.09,1.62h-2.26c.44-1.41.86-2.76,1.28-4.12.57-1.82,1.11-3.66,1.75-5.45.11-.3.69-.65,1.02-.62.62.06,1.53-.53,1.86.47,1.05,3.21,2.04,6.43,3.08,9.74Zm-5.84-3.34h2.67c-.42-1.41-.83-2.74-1.28-4.25-.17.3-.27.43-.31.57-.35,1.18-.69,2.36-1.07,3.68Z"/><path class="cls-1" d="m21.79,134.65c0-.4,0-.8,0-1.2.01-2.51,1.37-3.93,3.76-3.94,2.39-.02,3.81,1.39,3.87,3.87.03.96.04,1.91,0,2.87-.12,2.35-1.63,3.72-3.97,3.67-2.25-.06-3.63-1.5-3.66-3.83,0-.48,0-.96,0-1.43Zm5.55.1c0-.56.02-1.11,0-1.67-.05-1.11-.64-1.74-1.65-1.79-1.05-.05-1.76.51-1.83,1.59-.08,1.23-.08,2.46,0,3.69.07,1.02.72,1.56,1.75,1.56,1.02,0,1.67-.64,1.73-1.72.03-.55,0-1.11,0-1.67Z"/><path class="cls-1" d="m112.6,134.68c0,.56.03,1.12,0,1.67-.16,2.32-1.72,3.67-4.06,3.57-2.19-.09-3.54-1.53-3.56-3.81-.01-1.04-.02-2.07,0-3.11.05-2.02,1.42-3.37,3.5-3.49,2.2-.12,3.75,1.01,4.05,3.02.11.7.08,1.43.12,2.14-.01,0-.03,0-.04,0Zm-2.08.06c0-.56.02-1.11,0-1.67-.05-1.11-.65-1.73-1.66-1.77-1.04-.04-1.75.52-1.82,1.61-.08,1.19-.08,2.38-.01,3.57.06,1.09.76,1.68,1.79,1.66,1.02-.02,1.66-.66,1.71-1.73.03-.55,0-1.11,0-1.67Z"/><path class="cls-1" d="m34.89,129.67h2c0,2.2-.07,4.34.04,6.48.03.62.4,1.45.89,1.77,1.12.74,2.43-.12,2.46-1.53.03-1.83,0-3.67.01-5.5,0-.39.03-.78.05-1.22h1.76s.14.06.14.1c0,2.5.15,5.01-.05,7.49-.14,1.74-1.83,2.74-3.83,2.65-1.91-.08-3.33-1.17-3.44-2.98-.14-2.37-.03-4.76-.03-7.27Z"/><path class="cls-1" d="m12.33,131.36v2.41h3.19v1.8h-3.22v4.28h-1.97v-10.16h6.85v1.68h-4.85Z"/><path class="cls-1" d="m87.81,131.4h-2.7v-1.72h7.39c.37,1.64.32,1.71-1.21,1.72-.43,0-.86,0-1.44,0v8.46h-2.04v-8.46Z"/><path class="cls-1" d="m99.66,139.88h-1.84v-10.19h1.84v10.19Z"/></g></g></svg>